<?xml version="1.0" encoding="UTF-8"?>
<svg id="_レイヤー_1" data-name="レイヤー_1" xmlns="http://www.w3.org/2000/svg" version="1.1" viewBox="0 0 1000 500">
  <!-- Generator: Adobe Illustrator 30.1.0, SVG Export Plug-In . SVG Version: 2.1.1 Build 136)  -->
  <defs>
    <style>
      .st0 {
        fill: #222;
      }

      .st1 {
        fill: #f2f3f4;
      }
    </style>
  </defs>
  <rect class="st0" x="569.42" y="155.29" width="330.58" height="189.42"/>
  <g>
    <g>
      <path class="st0" d="M143.62,300.68v-119.43h-43.62v-25.96h115.48v25.96h-43.4v119.43h-28.45Z"/>
      <path class="st0" d="M242.27,344.71c-3.74,0-7.86-.73-12.36-2.18-4.5-1.45-8.48-3.16-11.94-5.09l10.18-22.23c2.36,1.25,4.54,2.25,6.54,3.01,2.01.76,3.78,1.15,5.3,1.15,2.91,0,5.47-.81,7.68-2.4,2.21-1.59,4.01-3.9,5.4-6.95l4.36-10.6-46.94-102.6h30.12l29.49,71.65,28.24-71.65h30.11l-47.14,112.77c-2.91,6.93-5.96,13.05-9.14,18.39-3.19,5.32-7.09,9.45-11.73,12.36-4.64,2.91-10.7,4.36-18.18,4.36Z"/>
      <path class="st0" d="M342.17,342.21v-145.38h25.75l1.25,14.74c3.46-5.53,7.85-9.79,13.18-12.78,5.33-2.97,11.53-4.46,18.59-4.46,9.55,0,17.82,2.21,24.82,6.66,6.99,4.43,12.42,10.68,16.3,18.8,3.87,8.1,5.81,17.75,5.81,28.97s-1.94,20.71-5.81,28.87c-3.88,8.16-9.31,14.47-16.3,18.9-7,4.43-15.27,6.64-24.82,6.64-6.93,0-13.02-1.45-18.28-4.36-5.27-2.91-9.63-6.98-13.08-12.25v55.66h-27.42ZM393.89,278.03c4.99,0,9.38-1.23,13.19-3.74,3.8-2.48,6.81-5.95,9.03-10.38,2.21-4.43,3.32-9.48,3.32-15.16s-1.07-10.7-3.22-15.06-5.12-7.79-8.93-10.28c-3.81-2.5-8.2-3.75-13.18-3.75-4.71,0-8.93,1.25-12.67,3.75-3.74,2.48-6.65,5.92-8.73,10.28-2.07,4.36-3.11,9.38-3.11,15.06s1.04,10.73,3.11,15.16c2.08,4.43,4.95,7.89,8.62,10.38,3.67,2.5,7.86,3.74,12.57,3.74Z"/>
      <path class="st0" d="M512.89,303.17c-10.25,0-19.32-2.32-27.2-6.95-7.89-4.65-14.1-11.05-18.59-19.22-4.5-8.16-6.75-17.58-6.75-28.24s2.32-20.08,6.96-28.24c4.63-8.18,11-14.57,19.11-19.22,8.1-4.63,17.41-6.96,27.93-6.96,9.14,0,17.55,2.4,25.23,7.17,7.68,4.78,13.84,11.78,18.48,20.98,4.64,9.21,6.96,20.4,6.96,33.55h-76.02c.69,6.93,3.67,12.42,8.93,16.51,5.26,4.07,11.21,6.12,17.86,6.12,5.68,0,10.31-1.2,13.92-3.63,3.6-2.42,6.36-5.56,8.31-9.45l24.51,9.55c-2.91,5.81-6.68,10.83-11.32,15.06-4.64,4.23-10.14,7.45-16.51,9.67-6.36,2.21-13.63,3.31-21.8,3.31ZM490.47,235.68h44.86c-.41-4.29-1.8-7.76-4.15-10.39-2.36-2.62-5.13-4.56-8.31-5.81-3.19-1.25-6.3-1.86-9.35-1.86s-6.06.57-9.45,1.76c-3.4,1.18-6.37,3.08-8.93,5.71-2.57,2.64-4.12,6.17-4.67,10.6Z"/>
    </g>
    <g>
      <path class="st1" d="M594.93,303.79c-4.56,0-8.48-1.66-11.73-4.99-3.25-3.31-4.88-7.27-4.88-11.83s1.63-8.32,4.88-11.63c3.25-3.33,7.17-4.99,11.73-4.99s8.48,1.66,11.74,4.99c3.25,3.31,4.88,7.2,4.88,11.63s-1.63,8.52-4.88,11.83c-3.25,3.33-7.17,4.99-11.74,4.99Z"/>
      <path class="st1" d="M675.31,303.17c-11.49,0-20.18-2.84-26.06-8.52-5.88-5.66-8.82-13.78-8.82-24.29v-50.27h-16.83v-23.26h16.83v-32.4h27.42v32.4h25.96v23.26h-25.96v44.23c0,4.45.96,7.79,2.91,10.07,1.94,2.28,4.77,3.43,8.51,3.43,1.39,0,2.91-.3,4.57-.93,1.66-.63,3.39-1.56,5.2-2.81l9.55,20.55c-3.32,2.5-7.03,4.55-11.11,6.14-4.08,1.59-8.14,2.38-12.15,2.38Z"/>
      <path class="st1" d="M706.26,300.68l38.63-53.8-35.93-50.05h32.4l18.69,27.82,18.48-27.82h32.4l-35.72,50.25,38.22,53.6h-32.6l-20.77-31.37-20.98,31.37h-32.82Z"/>
      <path class="st1" d="M870.12,303.17c-11.49,0-20.18-2.84-26.06-8.52-5.88-5.66-8.82-13.78-8.82-24.29v-50.27h-16.83v-23.26h16.83v-32.4h27.42v32.4h25.96v23.26h-25.96v44.23c0,4.45.96,7.79,2.91,10.07,1.94,2.28,4.77,3.43,8.51,3.43,1.39,0,2.91-.3,4.57-.93,1.66-.63,3.39-1.56,5.2-2.81l9.55,20.55c-3.32,2.5-7.03,4.55-11.11,6.14-4.08,1.59-8.14,2.38-12.15,2.38Z"/>
    </g>
  </g>
</svg>