<?xml version="1.0" encoding="UTF-8"?>
<svg id="_レイヤー_1" data-name="レイヤー_1" xmlns="http://www.w3.org/2000/svg" version="1.1" viewBox="0 0 1000 500">
  <!-- Generator: Adobe Illustrator 30.1.0, SVG Export Plug-In . SVG Version: 2.1.1 Build 136)  -->
  <defs>
    <style>
      .st0 {
        opacity: .4;
      }

      .st0, .st1 {
        fill: #222;
      }

      .st2 {
        stroke-width: 3.13px;
      }

      .st2, .st3 {
        fill: none;
        stroke: #222;
        stroke-miterlimit: 10;
      }

      .st3 {
        stroke-width: 2.81px;
      }
    </style>
  </defs>
  <g>
    <rect class="st0" x="569.42" y="156.55" width="330.58" height="189.41"/>
    <g>
      <line class="st2" x1="568.28" y1="144.21" x2="568.28" y2="355.79"/>
      <g>
        <line class="st3" x1="535.22" y1="144.21" x2="561.67" y2="144.21"/>
        <line class="st3" x1="574.89" y1="144.21" x2="601.34" y2="144.21"/>
      </g>
      <g>
        <line class="st3" x1="535.22" y1="355.79" x2="561.67" y2="355.79"/>
        <line class="st3" x1="574.89" y1="355.79" x2="601.34" y2="355.79"/>
      </g>
    </g>
  </g>
  <g>
    <g>
      <path class="st1" d="M143.62,301.92v-119.41h-43.62v-25.96h115.48v25.96h-43.4v119.41h-28.45Z"/>
      <path class="st1" d="M242.27,345.95c-3.74,0-7.86-.73-12.36-2.18-4.5-1.45-8.48-3.14-11.94-5.09l10.18-22.23c2.36,1.25,4.54,2.25,6.54,3.03,2.01.76,3.78,1.13,5.3,1.13,2.91,0,5.47-.79,7.68-2.38,2.21-1.59,4.01-3.92,5.4-6.96l4.36-10.58-46.94-102.61h30.12l29.49,71.67,28.24-71.67h30.11l-47.14,112.79c-2.91,6.91-5.96,13.05-9.14,18.37-3.19,5.32-7.09,9.45-11.73,12.36-4.64,2.91-10.7,4.36-18.18,4.36Z"/>
      <path class="st1" d="M342.17,343.47v-145.39h25.75l1.25,14.76c3.46-5.54,7.85-9.8,13.18-12.78,5.33-2.97,11.53-4.46,18.59-4.46,9.55,0,17.82,2.21,24.82,6.64,6.99,4.43,12.42,10.7,16.3,18.8,3.87,8.1,5.81,17.76,5.81,28.97s-1.94,20.71-5.81,28.87c-3.88,8.18-9.31,14.47-16.3,18.9-7,4.45-15.27,6.66-24.82,6.66-6.93,0-13.02-1.45-18.28-4.36-5.27-2.91-9.63-7-13.08-12.25v55.66h-27.42ZM393.89,279.29c4.99,0,9.38-1.25,13.19-3.74,3.8-2.5,6.81-5.95,9.03-10.39,2.21-4.43,3.32-9.48,3.32-15.16s-1.07-10.7-3.22-15.06c-2.15-4.36-5.12-7.77-8.93-10.28-3.81-2.48-8.2-3.74-13.18-3.74-4.71,0-8.93,1.25-12.67,3.74-3.74,2.5-6.65,5.92-8.73,10.28-2.07,4.36-3.11,9.38-3.11,15.06s1.04,10.73,3.11,15.16c2.08,4.45,4.95,7.89,8.62,10.39,3.67,2.48,7.86,3.74,12.57,3.74Z"/>
      <path class="st1" d="M512.89,304.42c-10.25,0-19.32-2.33-27.2-6.96-7.89-4.63-14.1-11.04-18.59-19.22-4.5-8.16-6.75-17.58-6.75-28.24s2.32-20.06,6.96-28.24c4.63-8.16,11-14.57,19.11-19.22,8.1-4.63,17.41-6.95,27.93-6.95,9.14,0,17.55,2.38,25.23,7.17,7.68,4.77,13.84,11.76,18.48,20.98,4.64,9.21,6.96,20.38,6.96,33.53h-76.02c.69,6.93,3.67,12.44,8.93,16.51,5.26,4.09,11.21,6.14,17.86,6.14,5.68,0,10.31-1.22,13.92-3.63,3.6-2.43,6.36-5.58,8.31-9.45l24.51,9.55c-2.91,5.81-6.68,10.83-11.32,15.06-4.64,4.23-10.14,7.44-16.51,9.65-6.36,2.21-13.63,3.33-21.8,3.33ZM490.47,236.92h44.86c-.41-4.29-1.8-7.76-4.15-10.38-2.36-2.64-5.13-4.58-8.31-5.81-3.19-1.25-6.3-1.88-9.35-1.88s-6.06.59-9.45,1.76c-3.4,1.18-6.37,3.09-8.93,5.71-2.57,2.64-4.12,6.17-4.67,10.6Z"/>
    </g>
    <g>
      <path class="st1" d="M594.93,305.05c-4.56,0-8.48-1.67-11.73-4.99-3.25-3.33-4.88-7.27-4.88-11.85s1.63-8.3,4.88-11.63c3.25-3.31,7.17-4.99,11.73-4.99s8.48,1.67,11.74,4.99c3.25,3.33,4.88,7.2,4.88,11.63s-1.63,8.52-4.88,11.85c-3.25,3.31-7.17,4.99-11.74,4.99Z"/>
      <path class="st1" d="M675.31,304.42c-11.49,0-20.18-2.84-26.06-8.52-5.88-5.68-8.82-13.78-8.82-24.31v-50.25h-16.83v-23.27h16.83v-32.4h27.42v32.4h25.96v23.27h-25.96v44.23c0,4.43.96,7.79,2.91,10.07,1.94,2.28,4.77,3.43,8.51,3.43,1.39,0,2.91-.32,4.57-.95s3.39-1.55,5.2-2.81l9.55,20.57c-3.32,2.48-7.03,4.53-11.11,6.12-4.08,1.59-8.14,2.4-12.15,2.4Z"/>
      <path class="st1" d="M706.26,301.92l38.63-53.78-35.93-50.06h32.4l18.69,27.84,18.48-27.84h32.4l-35.72,50.27,38.22,53.58h-32.6l-20.77-31.35-20.98,31.35h-32.82Z"/>
      <path class="st1" d="M870.12,304.42c-11.49,0-20.18-2.84-26.06-8.52-5.88-5.68-8.82-13.78-8.82-24.31v-50.25h-16.83v-23.27h16.83v-32.4h27.42v32.4h25.96v23.27h-25.96v44.23c0,4.43.96,7.79,2.91,10.07,1.94,2.28,4.77,3.43,8.51,3.43,1.39,0,2.91-.32,4.57-.95s3.39-1.55,5.2-2.81l9.55,20.57c-3.32,2.48-7.03,4.53-11.11,6.12-4.08,1.59-8.14,2.4-12.15,2.4Z"/>
    </g>
  </g>
</svg>